<svg xmlns="http://www.w3.org/2000/svg" xmlns:xlink="http://www.w3.org/1999/xlink" width="500" zoomAndPan="magnify" viewBox="0 0 375 374.999991" height="500" preserveAspectRatio="xMidYMid meet" version="1.0"><defs><clipPath id="f3796a8170"><path d="M 124.792969 126.183594 L 250.042969 126.183594 L 250.042969 188 L 124.792969 188 Z M 124.792969 126.183594 " clip-rule="nonzero"/></clipPath><clipPath id="cdc1f82b0a"><path d="M 137 183 L 180 183 L 180 231.183594 L 137 231.183594 Z M 137 183 " clip-rule="nonzero"/></clipPath><clipPath id="826beabc0f"><path d="M 195 183 L 238 183 L 238 231.183594 L 195 231.183594 Z M 195 183 " clip-rule="nonzero"/></clipPath></defs><rect x="-37.5" width="450" fill="#ffffff" y="-37.499999" height="449.999989" fill-opacity="1"/><rect x="-37.5" width="450" fill="#ffffff" y="-37.499999" height="449.999989" fill-opacity="1"/><g clip-path="url(#f3796a8170)"><path fill="#ffffff" d="M 187.4375 130.472656 C 221.265625 130.472656 248.828125 155.636719 250.023438 187.101562 C 250.050781 186.394531 250.070312 185.683594 250.070312 184.96875 C 250.070312 152.515625 222.027344 126.207031 187.4375 126.207031 C 152.84375 126.207031 124.804688 152.515625 124.804688 184.96875 C 124.804688 185.683594 124.820312 186.390625 124.847656 187.101562 C 126.046875 155.636719 153.605469 130.472656 187.4375 130.472656 Z M 187.4375 130.472656 " fill-opacity="1" fill-rule="nonzero"/></g><path fill="#231b1b" d="M 187.421875 178.71875 C 174.820312 152.203125 156.441406 147.230469 156.441406 147.230469 C 179.183594 164.277344 187.421875 222.285156 187.421875 222.285156 C 187.421875 222.285156 195.664062 164.277344 218.402344 147.230469 C 218.402344 147.230469 200.027344 152.203125 187.421875 178.71875 Z M 187.421875 178.71875 " fill-opacity="1" fill-rule="nonzero"/><path fill="#231b1b" d="M 199.476562 157.332031 L 190.15625 151.097656 L 175.394531 151.097656 L 182.15625 154.886719 C 181.039062 156.132812 180.355469 157.777344 180.355469 159.582031 C 180.355469 163.484375 183.519531 166.644531 187.421875 166.644531 C 191.328125 166.644531 194.492188 163.484375 194.492188 159.582031 C 194.492188 158.796875 194.355469 158.039062 194.117188 157.332031 L 196.285156 157.332031 L 195.84375 165.460938 L 197.660156 164.355469 L 197.148438 157.332031 Z M 199.476562 157.332031 " fill-opacity="1" fill-rule="nonzero"/><path fill="#231b1b" d="M 170.496094 169.722656 L 167.96875 165.304688 C 167.96875 165.304688 161.96875 162.9375 153.917969 164.515625 L 153.917969 209.816406 C 153.917969 209.816406 169.867188 207.289062 185.339844 220.546875 C 185.339844 220.546875 177.761719 208.238281 159.128906 206.183594 L 159.128906 167.988281 C 159.128906 167.988281 164.65625 167.515625 170.496094 169.722656 Z M 170.496094 169.722656 " fill-opacity="1" fill-rule="nonzero"/><path fill="#231b1b" d="M 150.402344 171.617188 L 145.308594 173.867188 L 145.308594 219.089844 C 145.308594 219.089844 166.511719 211.472656 183.683594 220.546875 C 183.683594 220.546875 173.851562 211.039062 150.757812 213.644531 Z M 150.402344 171.617188 " fill-opacity="1" fill-rule="nonzero"/><g clip-path="url(#cdc1f82b0a)"><path fill="#231b1b" d="M 142.703125 224.296875 L 142.46875 183.335938 L 137.375 185.703125 L 137.375 231.164062 C 137.375 231.164062 155.613281 218.023438 179.300781 219.796875 C 179.300781 219.796875 162.007812 214.117188 142.703125 224.296875 Z M 142.703125 224.296875 " fill-opacity="1" fill-rule="nonzero"/></g><path fill="#231b1b" d="M 204.210938 169.722656 L 206.738281 165.304688 C 206.738281 165.304688 212.738281 162.9375 220.792969 164.515625 L 220.792969 209.816406 C 220.792969 209.816406 204.84375 207.289062 189.367188 220.546875 C 189.367188 220.546875 196.945312 208.238281 215.582031 206.183594 L 215.582031 167.988281 C 215.582031 167.988281 210.054688 167.515625 204.210938 169.722656 Z M 204.210938 169.722656 " fill-opacity="1" fill-rule="nonzero"/><path fill="#231b1b" d="M 224.304688 171.617188 L 229.398438 173.867188 L 229.398438 219.089844 C 229.398438 219.089844 208.199219 211.472656 191.023438 220.546875 C 191.023438 220.546875 200.855469 211.039062 223.949219 213.644531 Z M 224.304688 171.617188 " fill-opacity="1" fill-rule="nonzero"/><g clip-path="url(#826beabc0f)"><path fill="#231b1b" d="M 232.003906 224.296875 L 232.238281 183.335938 L 237.332031 185.703125 L 237.332031 231.164062 C 237.332031 231.164062 219.09375 218.023438 195.40625 219.796875 C 195.40625 219.796875 212.699219 214.117188 232.003906 224.296875 Z M 232.003906 224.296875 " fill-opacity="1" fill-rule="nonzero"/></g></svg>