<?xml version="1.0" encoding="UTF-8"?>
<svg xmlns="http://www.w3.org/2000/svg" xmlns:xlink="http://www.w3.org/1999/xlink" width="24px" height="24px" viewBox="0 0 24 24" version="1.1">
<g id="surface1">
<path style="fill-rule:nonzero;fill:rgb(54.117647%,54.117647%,54.117647%);fill-opacity:1;stroke-width:1;stroke-linecap:butt;stroke-linejoin:miter;stroke:rgb(54.117647%,54.117647%,54.117647%);stroke-opacity:1;stroke-miterlimit:4;" d="M 21.710938 11.289062 L 12.710938 2.289062 C 12.523438 2.101562 12.265625 1.996094 12 1.996094 C 11.734375 1.996094 11.476562 2.101562 11.289062 2.289062 L 2.289062 11.289062 C 2.007812 11.578125 1.921875 12.007812 2.078125 12.378906 C 2.234375 12.753906 2.597656 12.996094 3 13 L 4 13 L 4 20.300781 C 4.039062 21.273438 4.855469 22.035156 5.828125 22 L 8.5 22 C 9.050781 22 9.5 21.550781 9.5 21 L 9.5 16.101562 C 9.5 15.546875 9.949219 15.101562 10.5 15.101562 L 13.5 15.101562 C 14.050781 15.101562 14.5 15.546875 14.5 16.101562 L 14.5 21 C 14.5 21.550781 14.949219 22 15.5 22 L 18.171875 22 C 19.144531 22.035156 19.960938 21.273438 20 20.300781 L 20 13 L 21 13 C 21.402344 12.996094 21.765625 12.753906 21.921875 12.378906 C 22.078125 12.007812 21.992188 11.578125 21.710938 11.289062 Z M 21.710938 11.289062 "/>
</g>
</svg>
