<?xml version="1.0" encoding="UTF-8"?>
<svg xmlns="http://www.w3.org/2000/svg" xmlns:xlink="http://www.w3.org/1999/xlink" width="24px" height="24px" viewBox="0 0 24 24" version="1.1">
<g id="surface1">
<path style=" stroke:none;fill-rule:nonzero;fill:rgb(70.980392%,72.54902%,72.941176%);fill-opacity:1;" d="M 4.328125 8 C 4.046875 7.996094 3.777344 7.875 3.589844 7.660156 L 2.25 6.160156 C 1.914062 5.742188 1.964844 5.136719 2.367188 4.78125 C 2.769531 4.429688 3.378906 4.453125 3.75 4.839844 L 4.328125 5.5 L 6.25 3.339844 C 6.621094 2.953125 7.230469 2.929688 7.632812 3.28125 C 8.035156 3.636719 8.085938 4.242188 7.75 4.660156 L 5.078125 7.660156 C 4.890625 7.875 4.617188 8 4.328125 8 Z M 5.078125 13.660156 L 7.75 10.660156 C 8.085938 10.242188 8.035156 9.636719 7.632812 9.28125 C 7.230469 8.929688 6.621094 8.953125 6.25 9.339844 L 4.328125 11.5 L 3.75 10.839844 C 3.519531 10.554688 3.148438 10.417969 2.789062 10.484375 C 2.425781 10.550781 2.132812 10.8125 2.019531 11.160156 C 1.90625 11.511719 1.996094 11.894531 2.25 12.160156 L 3.589844 13.660156 C 3.777344 13.875 4.046875 13.996094 4.328125 14 C 4.617188 14 4.890625 13.875 5.078125 13.660156 Z M 5.078125 19.660156 L 7.75 16.660156 C 8.085938 16.242188 8.035156 15.636719 7.632812 15.28125 C 7.230469 14.929688 6.621094 14.953125 6.25 15.339844 L 4.328125 17.5 L 3.75 16.839844 C 3.519531 16.554688 3.148438 16.417969 2.789062 16.484375 C 2.425781 16.550781 2.132812 16.8125 2.019531 17.160156 C 1.90625 17.511719 1.996094 17.894531 2.25 18.160156 L 3.589844 19.660156 C 3.777344 19.875 4.046875 19.996094 4.328125 20 C 4.617188 20 4.890625 19.875 5.078125 19.660156 Z M 5.078125 19.660156 "/>
<path style=" stroke:none;fill-rule:nonzero;fill:rgb(37.254902%,36.470588%,36.470588%);fill-opacity:1;" d="M 21 19 L 11 19 C 10.449219 19 10 18.550781 10 18 C 10 17.449219 10.449219 17 11 17 L 21 17 C 21.550781 17 22 17.449219 22 18 C 22 18.550781 21.550781 19 21 19 Z M 21 13 L 11 13 C 10.449219 13 10 12.550781 10 12 C 10 11.449219 10.449219 11 11 11 L 21 11 C 21.550781 11 22 11.449219 22 12 C 22 12.550781 21.550781 13 21 13 Z M 21 7 L 11 7 C 10.449219 7 10 6.550781 10 6 C 10 5.449219 10.449219 5 11 5 L 21 5 C 21.550781 5 22 5.449219 22 6 C 22 6.550781 21.550781 7 21 7 Z M 21 7 "/>
</g>
</svg>
