<?xml version="1.0" encoding="UTF-8"?>
<svg xmlns="http://www.w3.org/2000/svg" xmlns:xlink="http://www.w3.org/1999/xlink" width="24px" height="24px" viewBox="0 0 24 24" version="1.1">
<g id="surface1">
<path style=" stroke:none;fill-rule:nonzero;fill:rgb(32.156863%,32.156863%,32.156863%);fill-opacity:1;" d="M 21.660156 12 C 21.660156 12.773438 21.21875 13.476562 20.519531 13.808594 L 5.871094 20.75 C 5.601562 20.894531 5.304688 20.980469 5 21 C 4.320312 21 3.691406 20.652344 3.324219 20.085938 C 2.957031 19.515625 2.902344 18.796875 3.179688 18.179688 L 5.460938 13 L 5.910156 12 L 5.460938 11 L 3.179688 5.871094 C 2.835938 5.105469 3.007812 4.207031 3.609375 3.621094 C 4.210938 3.035156 5.113281 2.886719 5.871094 3.25 L 20.519531 10.191406 C 21.21875 10.523438 21.660156 11.226562 21.660156 12 Z M 21.660156 12 "/>
<path style=" stroke:none;fill-rule:nonzero;fill:rgb(63.137255%,63.137255%,63.137255%);fill-opacity:1;" d="M 12 12 C 12 12.550781 11.550781 13 11 13 L 5.460938 13 L 5.910156 12 L 5.460938 11 L 11 11 C 11.550781 11 12 11.449219 12 12 Z M 12 12 "/>
</g>
</svg>
