<?xml version="1.0" encoding="UTF-8"?>
<svg xmlns="http://www.w3.org/2000/svg" xmlns:xlink="http://www.w3.org/1999/xlink" width="24px" height="24px" viewBox="0 0 24 24" version="1.1">
<g id="surface1">
<path style=" stroke:none;fill-rule:nonzero;fill:rgb(32.156863%,32.156863%,32.156863%);fill-opacity:1;" d="M 20.269531 3.910156 C 19.140625 2.644531 17.507812 1.945312 15.808594 2 C 14.375 2.15625 13.035156 2.785156 12 3.789062 C 10.964844 2.785156 9.625 2.15625 8.191406 2 C 6.496094 1.941406 4.859375 2.636719 3.730469 3.898438 C 1 6.609375 1.789062 11.5 4.148438 14.671875 C 6.1875 17.40625 8.632812 19.808594 11.398438 21.800781 C 11.753906 22.066406 12.246094 22.066406 12.601562 21.800781 C 15.367188 19.808594 17.8125 17.40625 19.851562 14.671875 C 22.210938 11.5 23 6.609375 20.269531 3.910156 Z M 20.269531 3.910156 "/>
<path style=" stroke:none;fill-rule:nonzero;fill:rgb(63.137255%,63.137255%,63.137255%);fill-opacity:1;" d="M 13 15 C 12.570312 15 12.1875 14.726562 12.050781 14.320312 L 11 11.160156 L 10.949219 11.320312 C 10.8125 11.726562 10.429688 12 10 12 L 7 12 C 6.449219 12 6 11.550781 6 11 C 6 10.449219 6.449219 10 7 10 L 9.28125 10 L 10.050781 7.679688 C 10.183594 7.269531 10.566406 6.992188 11 6.992188 C 11.433594 6.992188 11.816406 7.269531 11.949219 7.679688 L 13 10.839844 L 13.050781 10.679688 C 13.1875 10.273438 13.570312 10 14 10 L 17 10 C 17.550781 10 18 10.449219 18 11 C 18 11.550781 17.550781 12 17 12 L 14.71875 12 L 14 14.320312 C 13.855469 14.746094 13.449219 15.023438 13 15 Z M 13 15 "/>
</g>
</svg>
