<?xml version="1.0" encoding="UTF-8"?>
<svg xmlns="http://www.w3.org/2000/svg" xmlns:xlink="http://www.w3.org/1999/xlink" width="24px" height="24px" viewBox="0 0 24 24" version="1.1">
<g id="surface1">
<path style=" stroke:none;fill-rule:nonzero;fill:rgb(32.156863%,32.156863%,32.156863%);fill-opacity:1;" d="M 22 7 L 22 16 C 22 17.105469 21.105469 18 20 18 L 8 18 C 6.894531 18 6 17.105469 6 16 L 6 7 C 6 5.894531 6.894531 5 8 5 L 20 5 C 21.105469 5 22 5.894531 22 7 Z M 19 20 L 4 20 L 4 10 C 4 9.449219 3.550781 9 3 9 C 2.449219 9 2 9.449219 2 10 L 2 20 C 2 21.105469 2.894531 22 4 22 L 19 22 C 19.550781 22 20 21.550781 20 21 C 20 20.449219 19.550781 20 19 20 Z M 19 20 "/>
<path style=" stroke:none;fill-rule:nonzero;fill:rgb(63.137255%,63.137255%,63.137255%);fill-opacity:1;" d="M 10.710938 8.289062 L 8.710938 6.289062 C 8.898438 5.886719 8.996094 5.445312 9 5 C 9 3.34375 7.65625 2 6 2 C 4.34375 2 3 3.34375 3 5 C 3 6.65625 4.34375 8 6 8 C 6.445312 7.996094 6.886719 7.898438 7.289062 7.710938 L 9.289062 9.710938 C 9.476562 9.898438 9.734375 10.003906 10 10.003906 C 10.265625 10.003906 10.523438 9.898438 10.710938 9.710938 C 10.898438 9.523438 11.003906 9.265625 11.003906 9 C 11.003906 8.734375 10.898438 8.476562 10.710938 8.289062 Z M 10.710938 8.289062 "/>
</g>
</svg>
