<?xml version="1.0" encoding="UTF-8"?>
<svg xmlns="http://www.w3.org/2000/svg" xmlns:xlink="http://www.w3.org/1999/xlink" width="24px" height="24px" viewBox="0 0 24 24" version="1.1">
<g id="surface1">
<path style=" stroke:none;fill-rule:nonzero;fill:rgb(32.156863%,32.156863%,32.156863%);fill-opacity:1;" d="M 20.890625 9.78125 L 20.238281 9.78125 C 19.792969 9.746094 19.402344 9.460938 19.238281 9.039062 L 19.238281 9 C 19.046875 8.574219 19.132812 8.074219 19.460938 7.738281 L 19.921875 7.28125 C 20.347656 6.839844 20.347656 6.140625 19.921875 5.699219 L 18.289062 4.140625 C 17.851562 3.710938 17.148438 3.710938 16.710938 4.140625 L 16.25 4.601562 C 15.917969 4.921875 15.421875 5.007812 15 4.820312 C 14.582031 4.660156 14.292969 4.269531 14.261719 3.820312 L 14.261719 3.109375 C 14.261719 2.808594 14.136719 2.519531 13.921875 2.3125 C 13.703125 2.101562 13.410156 1.988281 13.109375 2 L 10.890625 2 C 10.277344 2 9.78125 2.496094 9.78125 3.109375 L 9.78125 3.761719 C 9.746094 4.207031 9.460938 4.597656 9.039062 4.761719 L 9 4.761719 C 8.589844 4.964844 8.09375 4.902344 7.75 4.601562 L 7.289062 4.140625 C 6.851562 3.710938 6.148438 3.710938 5.710938 4.140625 L 4.140625 5.710938 C 3.710938 6.148438 3.710938 6.851562 4.140625 7.289062 L 4.601562 7.75 C 4.921875 8.082031 5.007812 8.578125 4.820312 9 C 4.660156 9.417969 4.269531 9.707031 3.820312 9.738281 L 3.109375 9.738281 C 2.808594 9.738281 2.519531 9.863281 2.3125 10.078125 C 2.101562 10.296875 1.988281 10.589844 2 10.890625 L 2 13.109375 C 2 13.722656 2.496094 14.21875 3.109375 14.21875 L 3.761719 14.21875 C 4.207031 14.253906 4.597656 14.539062 4.761719 14.960938 C 4.953125 15.386719 4.867188 15.886719 4.539062 16.21875 L 4.078125 16.679688 C 3.652344 17.121094 3.652344 17.820312 4.078125 18.261719 L 5.648438 19.828125 C 6.089844 20.257812 6.789062 20.257812 7.230469 19.828125 L 7.691406 19.371094 C 8.039062 19.03125 8.566406 18.953125 9 19.179688 C 9.417969 19.339844 9.707031 19.730469 9.738281 20.179688 L 9.738281 20.828125 C 9.722656 21.140625 9.835938 21.445312 10.058594 21.667969 C 10.277344 21.890625 10.578125 22.011719 10.890625 22 L 13.109375 22 C 13.722656 22 14.21875 21.503906 14.21875 20.890625 L 14.21875 20.238281 C 14.253906 19.792969 14.539062 19.402344 14.960938 19.238281 C 15.386719 19.046875 15.886719 19.132812 16.21875 19.460938 L 16.679688 19.921875 C 17.121094 20.347656 17.820312 20.347656 18.261719 19.921875 L 19.828125 18.351562 C 20.257812 17.910156 20.257812 17.210938 19.828125 16.769531 L 19.371094 16.308594 C 19.03125 15.960938 18.953125 15.433594 19.179688 15 C 19.339844 14.582031 19.730469 14.292969 20.179688 14.261719 L 20.828125 14.261719 C 21.140625 14.277344 21.445312 14.164062 21.667969 13.941406 C 21.890625 13.722656 22.011719 13.421875 22 13.109375 L 22 10.890625 C 22 10.277344 21.503906 9.78125 20.890625 9.78125 Z M 20.890625 9.78125 "/>
<path style=" stroke:none;fill-rule:nonzero;fill:rgb(63.137255%,63.137255%,63.137255%);fill-opacity:1;" d="M 16 12 C 16 14.210938 14.210938 16 12 16 C 9.789062 16 8 14.210938 8 12 C 8 9.789062 9.789062 8 12 8 C 14.210938 8 16 9.789062 16 12 Z M 16 12 "/>
</g>
</svg>
