<?xml version="1.0" encoding="UTF-8"?>
<svg xmlns="http://www.w3.org/2000/svg" xmlns:xlink="http://www.w3.org/1999/xlink" width="24px" height="24px" viewBox="0 0 24 24" version="1.1">
<g id="surface1">
<path style=" stroke:none;fill-rule:nonzero;fill:rgb(32.156863%,32.156863%,32.156863%);fill-opacity:1;" d="M 11 19.609375 C 11.003906 19.082031 11.214844 18.574219 11.589844 18.199219 L 17 12.808594 C 16.484375 12.507812 15.929688 12.285156 15.351562 12.148438 C 17.628906 9.785156 17.582031 6.027344 15.246094 3.71875 C 12.910156 1.410156 9.152344 1.410156 6.8125 3.71875 C 4.476562 6.027344 4.429688 9.785156 6.710938 12.148438 C 3.960938 12.753906 2.003906 15.1875 2 18 C 2 20.210938 3.789062 22 6 22 L 11 22 Z M 11 19.609375 "/>
<path style=" stroke:none;fill-rule:nonzero;fill:rgb(63.137255%,63.137255%,63.137255%);fill-opacity:1;" d="M 20.308594 12.289062 L 21.710938 13.691406 C 22.089844 14.078125 22.089844 14.699219 21.710938 15.089844 L 15.101562 21.710938 C 14.910156 21.894531 14.65625 21.996094 14.390625 22 L 13 22 C 12.449219 22 12 21.550781 12 21 L 12 19.609375 C 12.003906 19.34375 12.105469 19.089844 12.289062 18.898438 L 18.910156 12.289062 C 19.300781 11.910156 19.921875 11.910156 20.308594 12.289062 Z M 20.308594 12.289062 "/>
</g>
</svg>
