<?xml version="1.0" encoding="UTF-8"?>
<svg xmlns="http://www.w3.org/2000/svg" xmlns:xlink="http://www.w3.org/1999/xlink" width="24px" height="24px" viewBox="0 0 24 24" version="1.1">
<g id="surface1">
<path style=" stroke:none;fill-rule:nonzero;fill:rgb(63.137255%,63.137255%,63.137255%);fill-opacity:1;" d="M 17.710938 11.289062 L 14.710938 8.289062 C 14.316406 7.898438 13.683594 7.898438 13.289062 8.289062 C 12.898438 8.683594 12.898438 9.316406 13.289062 9.710938 L 14.589844 11 L 3 11 C 2.449219 11 2 11.449219 2 12 C 2 12.550781 2.449219 13 3 13 L 14.589844 13 L 13.289062 14.289062 C 13.101562 14.476562 12.996094 14.734375 12.996094 15 C 12.996094 15.265625 13.101562 15.523438 13.289062 15.710938 C 13.476562 15.898438 13.734375 16.003906 14 16.003906 C 14.265625 16.003906 14.523438 15.898438 14.710938 15.710938 L 17.710938 12.710938 C 17.898438 12.523438 18.003906 12.265625 18.003906 12 C 18.003906 11.734375 17.898438 11.476562 17.710938 11.289062 Z M 17.710938 11.289062 "/>
<path style=" stroke:none;fill-rule:nonzero;fill:rgb(32.156863%,32.156863%,32.156863%);fill-opacity:1;" d="M 20 21 L 11 21 C 9.894531 21 9 20.105469 9 19 L 9 16 C 9 15.449219 9.449219 15 10 15 C 10.550781 15 11 15.449219 11 16 L 11 19 L 20 19 L 20 5 L 11 5 L 11 8 C 11 8.550781 10.550781 9 10 9 C 9.449219 9 9 8.550781 9 8 L 9 5 C 9 3.894531 9.894531 3 11 3 L 20 3 C 21.105469 3 22 3.894531 22 5 L 22 19 C 22 20.105469 21.105469 21 20 21 Z M 20 21 "/>
</g>
</svg>
