<?xml version="1.0" encoding="UTF-8"?>
<svg xmlns="http://www.w3.org/2000/svg" xmlns:xlink="http://www.w3.org/1999/xlink" width="24px" height="24px" viewBox="0 0 24 24" version="1.1">
<g id="surface1">
<path style=" stroke:none;fill-rule:nonzero;fill:rgb(32.156863%,32.156863%,32.156863%);fill-opacity:1;" d="M 21 7 L 3 7 C 2.449219 7 2 7.449219 2 8 L 2 20 C 2 21.105469 2.894531 22 4 22 L 20 22 C 21.105469 22 22 21.105469 22 20 L 22 8 C 22 7.449219 21.550781 7 21 7 Z M 21 7 "/>
<path style=" stroke:none;fill-rule:nonzero;fill:rgb(63.137255%,63.137255%,63.137255%);fill-opacity:1;" d="M 22 6 L 22 9 L 2 9 L 2 6 C 2 4.894531 2.894531 4 4 4 L 20 4 C 21.105469 4 22 4.894531 22 6 Z M 12 15 L 12 12.171875 C 12.011719 11.847656 11.871094 11.539062 11.617188 11.339844 C 11.363281 11.144531 11.027344 11.078125 10.71875 11.171875 C 8.757812 11.832031 7.625 13.886719 8.109375 15.898438 C 8.4375 17.398438 9.609375 18.570312 11.109375 18.898438 C 13.125 19.386719 15.175781 18.253906 15.839844 16.289062 C 15.929688 15.980469 15.867188 15.648438 15.667969 15.394531 C 15.46875 15.140625 15.160156 14.996094 14.839844 15.011719 Z M 12 15 "/>
<path style=" stroke:none;fill-rule:nonzero;fill:rgb(32.156863%,32.156863%,32.156863%);fill-opacity:1;" d="M 16 7 C 15.449219 7 15 6.550781 15 6 L 15 3 C 15 2.449219 15.449219 2 16 2 C 16.550781 2 17 2.449219 17 3 L 17 6 C 17 6.550781 16.550781 7 16 7 Z M 9 6 L 9 3 C 9 2.449219 8.550781 2 8 2 C 7.449219 2 7 2.449219 7 3 L 7 6 C 7 6.550781 7.449219 7 8 7 C 8.550781 7 9 6.550781 9 6 Z M 9 6 "/>
</g>
</svg>
